<?xml version="1.0" encoding="UTF-8"?>
<svg width="269.3" height="312.3" version="1.1" viewBox="0 0 269.3 312.3" xml:space="preserve" xmlns="http://www.w3.org/2000/svg"><g transform="translate(-126.2 -107.5)"><g><path d="m126.2 340.8-0.0258-154.9 134.7-78.34 134.7 78.74-0.02097 154-135.1 79.54z" fill="#caba9b"/><path d="m259.6 410.9 130.7-78.67-31.5-23.29-99.69 33.39z" fill="#990c0c"/><path d="m254.9 351.5 109.5-44.58-27.89-22.77-80.57 15.31z" fill="#c1810f"/><path d="m258.5 299.9 83.71-16.16-45.45-26.9-37.7 4.464z" fill="#d4ac50"/><path d="m258.5 408.4-15.64-89.93-25.79-64.68-86.63 81.4z" fill="#0b8630"/><path d="m130.8 338.1-0.1876-4.333 108.3 62.74-7.696-27.8 2.516-32.78-17.55 5.955-18.11-6.537 10.77-12.74 8.476-22.19-1.78-24.35 4.656-3.642 3.544-7.903 2.627-9.633 9.492 1.633 7.051 16.02-6.665 22.3 6.958 15.48 9.499-24.15-4.506-19.45 5.482-34.51 3.852 1.074 2.729 12.56 0.4615 162.9 127.6-76.45 2.513 4.163-130.2 78.05zm0.0416-150.2 130.4-75.4 129.5 76 0.0997 148.4-9.587-10.13-24.39-16.78-12.86-19.47-10.99-5.676-6.894-8.99-7.248 5.333-8.218-8.658-11.8-6.06-9.976-9.289-7.41-17.53-9.71-9.53-12.28-19.83-16.57 30.91-9.474 9.731-12.48-4.281-0.0762 8.305-5e-3 7.237-7.953-1.821-6.69 7.425-13.43 19.51-14.85 12.61-9.027 9.932-32.53 19.64-5.623 8.645z" fill="#00414b"/></g><g fill="#caba9b"><path transform="matrix(1.391 -.08596 .08596 1.391 39.97 63.26)" d="m104.2 134.2c-4.078 0.2309-0.9363 4.242-4.981 3.672-4.044-0.5691 0.08176-3.557-3.774-4.904-3.856-1.347-2.488 3.56-6.007 1.487s1.437-3.255-1.61-5.975c-3.047-2.72-3.661 2.337-6.119-0.9251-2.457-3.262 2.573-2.457 0.7993-6.136s-4.277 0.7581-5.299-3.196c-1.022-3.954 3.318-1.286 3.087-5.363-0.2309-4.078-4.242-0.9363-3.672-4.981s3.557 0.0818 4.904-3.774c1.347-3.856-3.56-2.488-1.487-6.007 2.073-3.519 3.255 1.437 5.975-1.61 2.72-3.047-2.337-3.661 0.9251-6.119 3.262-2.457 2.457 2.573 6.136 0.7993 3.679-1.774-0.7581-4.277 3.196-5.299 3.954-1.022 1.286 3.318 5.363 3.087 4.078-0.2309 0.9363-4.242 4.981-3.672s-0.0818 3.557 3.774 4.904c3.856 1.347 2.488-3.56 6.007-1.487s-1.437 3.255 1.61 5.975c3.047 2.72 3.661-2.337 6.119 0.9251 2.457 3.262-2.573 2.457-0.7993 6.136 1.774 3.679 4.277-0.7581 5.299 3.196s-3.318 1.286-3.087 5.363c0.2309 4.078 4.242 0.9363 3.672 4.981-0.5691 4.044-3.557-0.0818-4.904 3.774-1.347 3.856 3.56 2.488 1.487 6.007-2.073 3.519-3.255-1.437-5.975 1.61-2.72 3.047 2.337 3.661-0.9251 6.119-3.262 2.457-2.457-2.573-6.136-0.7993s0.7581 4.277-3.196 5.299-1.286-3.318-5.363-3.087z"/><path transform="matrix(1.665 .106 -.106 1.665 101.4 -28.56)" d="m104.2 134.2c-4.078 0.2309-0.9363 4.242-4.981 3.672-4.044-0.5691 0.08176-3.557-3.774-4.904-3.856-1.347-2.488 3.56-6.007 1.487s1.437-3.255-1.61-5.975c-3.047-2.72-3.661 2.337-6.119-0.9251-2.457-3.262 2.573-2.457 0.7993-6.136s-4.277 0.7581-5.299-3.196c-1.022-3.954 3.318-1.286 3.087-5.363-0.2309-4.078-4.242-0.9363-3.672-4.981s3.557 0.0818 4.904-3.774c1.347-3.856-3.56-2.488-1.487-6.007 2.073-3.519 3.255 1.437 5.975-1.61 2.72-3.047-2.337-3.661 0.9251-6.119 3.262-2.457 2.457 2.573 6.136 0.7993 3.679-1.774-0.7581-4.277 3.196-5.299 3.954-1.022 1.286 3.318 5.363 3.087 4.078-0.2309 0.9363-4.242 4.981-3.672s-0.0818 3.557 3.774 4.904c3.856 1.347 2.488-3.56 6.007-1.487s-1.437 3.255 1.61 5.975c3.047 2.72 3.661-2.337 6.119 0.9251 2.457 3.262-2.573 2.457-0.7993 6.136 1.774 3.679 4.277-0.7581 5.299 3.196s-3.318 1.286-3.087 5.363c0.2309 4.078 4.242 0.9363 3.672 4.981-0.5691 4.044-3.557-0.0818-4.904 3.774-1.347 3.856 3.56 2.488 1.487 6.007-2.073 3.519-3.255-1.437-5.975 1.61-2.72 3.047 2.337 3.661-0.9251 6.119-3.262 2.457-2.457-2.573-6.136-0.7993s0.7581 4.277-3.196 5.299-1.286-3.318-5.363-3.087z"/><path transform="matrix(1.377 .2133 -.2133 1.377 210.6 33.53)" d="m104.2 134.2c-4.078 0.2309-0.9363 4.242-4.981 3.672-4.044-0.5691 0.08176-3.557-3.774-4.904-3.856-1.347-2.488 3.56-6.007 1.487s1.437-3.255-1.61-5.975c-3.047-2.72-3.661 2.337-6.119-0.9251-2.457-3.262 2.573-2.457 0.7993-6.136s-4.277 0.7581-5.299-3.196c-1.022-3.954 3.318-1.286 3.087-5.363-0.2309-4.078-4.242-0.9363-3.672-4.981s3.557 0.0818 4.904-3.774c1.347-3.856-3.56-2.488-1.487-6.007 2.073-3.519 3.255 1.437 5.975-1.61 2.72-3.047-2.337-3.661 0.9251-6.119 3.262-2.457 2.457 2.573 6.136 0.7993 3.679-1.774-0.7581-4.277 3.196-5.299 3.954-1.022 1.286 3.318 5.363 3.087 4.078-0.2309 0.9363-4.242 4.981-3.672s-0.0818 3.557 3.774 4.904c3.856 1.347 2.488-3.56 6.007-1.487s-1.437 3.255 1.61 5.975c3.047 2.72 3.661-2.337 6.119 0.9251 2.457 3.262-2.573 2.457-0.7993 6.136 1.774 3.679 4.277-0.7581 5.299 3.196s-3.318 1.286-3.087 5.363c0.2309 4.078 4.242 0.9363 3.672 4.981-0.5691 4.044-3.557-0.0818-4.904 3.774-1.347 3.856 3.56 2.488 1.487 6.007-2.073 3.519-3.255-1.437-5.975 1.61-2.72 3.047 2.337 3.661-0.9251 6.119-3.262 2.457-2.457-2.573-6.136-0.7993s0.7581 4.277-3.196 5.299-1.286-3.318-5.363-3.087z"/></g><circle cx="260.4" cy="168.5" r="33.03" fill="none" stroke="#053231" stroke-dasharray="7, 7" stroke-dashoffset="1.05" stroke-width="3.5"/><circle cx="260.6" cy="168.1" r="18.83" fill="none" stroke="#033b3a" stroke-dasharray="1.4453, 1.4453" stroke-width="14.45"/><circle cx="260.5" cy="168" r="8.384" fill="#00414b"/><circle cx="192.5" cy="209.8" r="26.17" fill="none" stroke="#023736" stroke-width="2.593"/><circle cx="328.8" cy="209.2" r="26.17" fill="#caba9b" stroke="#033230" stroke-width="2.593"/></g></svg>
